<svg width="30" height="30" viewBox="0 0 30 30" fill="none" xmlns="http://www.w3.org/2000/svg">
<path d="M23 3C21.9391 3 20.9217 3.42143 20.1716 4.17157C19.4214 4.92172 19 5.93913 19 7C19.0018 7.28117 19.0332 7.56136 19.0938 7.83594L10.0117 12.377C9.63714 11.9457 9.17454 11.5997 8.65505 11.3622C8.13555 11.1247 7.57121 11.0012 7 11C5.93913 11 4.92172 11.4214 4.17157 12.1716C3.42143 12.9217 3 13.9391 3 15C3 16.0609 3.42143 17.0783 4.17157 17.8284C4.92172 18.5786 5.93913 19 7 19C7.57139 18.9994 8.13602 18.8763 8.65586 18.6391C9.1757 18.4019 9.6387 18.0561 10.0137 17.625L19.0898 22.1641C19.0306 22.4388 19.0005 22.719 19 23C19 24.0609 19.4214 25.0783 20.1716 25.8284C20.9217 26.5786 21.9391 27 23 27C24.0609 27 25.0783 26.5786 25.8284 25.8284C26.5786 25.0783 27 24.0609 27 23C27 21.9391 26.5786 20.9217 25.8284 20.1716C25.0783 19.4214 24.0609 19 23 19C22.4286 19.0006 21.864 19.1237 21.3441 19.3609C20.8243 19.5981 20.3613 19.9439 19.9863 20.375L10.9102 15.8359C10.9694 15.5612 10.9995 15.281 11 15C10.9981 14.7195 10.9667 14.44 10.9062 14.166L19.9883 9.625C20.363 10.0559 20.8257 10.4015 21.3452 10.6387C21.8647 10.8759 22.4289 10.9991 23 11C24.0609 11 25.0783 10.5786 25.8284 9.82843C26.5786 9.07828 27 8.06087 27 7C27 5.93913 26.5786 4.92172 25.8284 4.17157C25.0783 3.42143 24.0609 3 23 3Z" fill="black"/>
</svg>
